<svg width="372" height="381" fill="none" xmlns="http://www.w3.org/2000/svg"><g clip-path="url(#clip0_5_135)"><path d="M66.936 370.147h5.699l2.712-21.999h-8.411v21.999z" fill="#A0616A"/><path d="M65.076 366.24l9.105-.544v3.904l8.656 5.983a2.44 2.44 0 01-1.385 4.446h-10.84l-1.868-3.862-.73 3.862h-4.087l1.149-13.789z" fill="#2F2E41"/><path d="M112.517 370.147h5.699l2.713-21.999h-8.412v21.999z" fill="#A0616A"/><path d="M110.657 366.24l9.105-.544v3.904l8.657 5.983a2.447 2.447 0 01.942 2.733 2.439 2.439 0 01-2.327 1.713h-10.84l-1.868-3.862-.73 3.862h-4.087l1.148-13.789z" fill="#2F2E41"/><path d="M71.447 235.782l30.301.76v-32.773l-24.89.124-5.41 31.889z" fill="#A0616A"/><path d="M101.902 212.186l4.05 13.506 8.408 17.715 17.762 102.323-2.715 14.154-26.332-1.108-11.727-87.731-.188 12.112-.092 5.862s4.278 38.129-.708 45.528c-4.986 7.4-.102 6.53-.102 6.53l-.237 15.264-31.2.221 6.883-43.946s3.495-2.761 1.626-5.537c-1.87-2.776 1.812-6.176 1.812-6.176l-1.652-34.308s1.829-5.926-.322-6.696c-2.151-.77-.282-5.866-.282-5.866l-.32-6.64 7.078-26.783 28.258-8.424z" fill="#2F2E41"/><path d="M72.54 203.769l-3.098-9.3-2.212-3.1-.885-8.858c0-23.915 5.33-19.933 5.33-19.933l6.953-8.411 7.91-.247 6.251-.196 5.197 8.636 7.523 2.658 2.947 15.319-5.38 16.346.237-1.214c2.532 4.679 1.888 5.382-.209 8.895l-.104 1.269c-.247 2.999 1.842 3.516-1.098 4.147-25.252 5.415-27.657 16.245-30.663 12.033-.67-.937 2.17-12.13 1.202-12.033-2.654.265.1-6.011.1-6.011z" fill="#E6E6E6"/><path d="M88.015 150.751c7.25 0 13.128-5.882 13.128-13.138s-5.877-13.138-13.128-13.138c-7.25 0-13.128 5.882-13.128 13.138s5.878 13.138 13.128 13.138zm-27.691 80.598l1.344-46.282 8.756 3.834-4.365 42.279a4.371 4.371 0 01-.182 6.888 4.364 4.364 0 01-6.85-4.459 4.366 4.366 0 011.297-2.26z" fill="#A0616A"/><path d="M71.518 162.339l-1.018.322a13.423 13.423 0 00-6.783 4.868 13.437 13.437 0 00-2.596 7.939l-1.916 8.778c2.775 4.764 6.877 7.124 12.587 6.571l-.274-28.478z" fill="#E6E6E6"/><path d="M131.371 178.314a4.357 4.357 0 00-6.994-3.478 4.355 4.355 0 00-1.722 3.329 4.357 4.357 0 00.36 1.888l-8.586 13.539v-8.121l-9.685 1.048 1.356 14.472a5.456 5.456 0 0010.189 2.176l11.606-20.58a4.363 4.363 0 003.476-4.273z" fill="#A0616A"/><path d="M103.959 164.515l.974.308a12.852 12.852 0 018.973 12.252l1.832 8.396c-2.654 4.558-6.578 6.816-12.041 6.287l.262-27.243z" fill="#E6E6E6"/><path d="M71.165 140.548c.733-2.793 1.009-5.716 2.068-8.402a15.23 15.23 0 0127.365-2.039 10.394 10.394 0 011.501 6.755c-.418 2.564-2.115 5.002-1.583 7.545.355 1.701 1.639 3.023 2.659 4.43 1.019 1.407 1.824 3.268 1.089 4.843-.797 1.71-3.013 2.216-4.892 2.055-1.88-.16-3.762-.768-5.617-.427l.883-3.465-6.597 6.355c.244-2.205-.78-4.32-1.486-6.422-.705-2.103-1.035-4.636.364-6.357.836-1.029 2.125-1.549 3.275-2.208 1.15-.659 2.292-1.645 2.41-2.967.144-1.633-1.319-2.944-2.755-3.734s-3.09-1.452-3.897-2.88l1.736 3.729a10.965 10.965 0 01-9.098-6.165l-.793.519c-6.592 7.399 1.85 18.484-3.099 22.363 2.174-3.878-4.662-9.228-3.533-13.528z" fill="#2F2E41"/><path d="M242.783 1.401L122.339 36.272c-18.733 5.424-29.525 25.018-24.106 43.765l79.624 275.438c5.419 18.747 24.999 29.547 43.731 24.124l120.445-34.871c18.733-5.424 29.525-25.018 24.106-43.765L286.515 25.525c-5.42-18.747-24.999-29.547-43.732-24.124z" fill="#3F3D56"/><path d="M243.702 4.58l-15.75 4.56 1.574 5.446a9.686 9.686 0 01-.82 7.359 9.67 9.67 0 01-5.78 4.623l-70.37 20.373a9.663 9.663 0 01-11.973-6.604l-1.574-5.446-15.751 4.56a32.044 32.044 0 00-19.12 15.312 32.083 32.083 0 00-2.728 24.354l79.623 275.438a32.06 32.06 0 0015.301 19.134 32.014 32.014 0 0024.335 2.731l120.445-34.871a32.045 32.045 0 0019.12-15.312 32.083 32.083 0 002.728-24.354L283.338 26.445a32.057 32.057 0 00-15.3-19.134 32.018 32.018 0 00-24.336-2.73z" fill="#fff"/><path d="M107.688 115.991a2.405 2.405 0 01-2.979-1.643l-1.336-4.624a2.4 2.4 0 01.204-1.83 2.414 2.414 0 012.372-1.231 2.401 2.401 0 011.612.89c.198.247.344.53.432.834l1.337 4.623a2.412 2.412 0 01-1.642 2.981zm6.854 23.71a2.405 2.405 0 01-2.979-1.643l-3.679-12.728a2.407 2.407 0 014.189-2.172c.197.247.344.531.431.834l3.68 12.729a2.412 2.412 0 01-1.642 2.98zm5.51 19.062a2.408 2.408 0 01-2.978-1.643l-3.68-12.729a2.407 2.407 0 011.642-2.981 2.405 2.405 0 012.979 1.644l3.679 12.728a2.408 2.408 0 01-1.642 2.981zm186.43-65.25a2.407 2.407 0 01-2.979-1.643l-8.978-31.058a2.41 2.41 0 011.642-2.98 2.403 2.403 0 012.978 1.642l8.978 31.058a2.408 2.408 0 01-1.641 2.98z" fill="#3F3D56"/><path d="M153.31 110.429a.902.902 0 01-.642-.054l-11.666-5.625a.9.9 0 01-.421-1.204l5.62-11.676a.9.9 0 011.664.094.918.918 0 01-.039.69l-5.229 10.862 10.854 5.233a.903.903 0 01-.141 1.68zm6.631-1.945a.899.899 0 01-.98-.336.9.9 0 01-.018-1.036l6.748-9.989-9.981-6.753a.9.9 0 01-.38-.93.899.899 0 01.714-.705.899.899 0 01.676.14l10.728 7.259a.902.902 0 01.242 1.253l-7.253 10.736a.895.895 0 01-.496.361z" fill="#6C63FF"/><path d="M278.091 87.013L140.47 126.857a8.337 8.337 0 01-10.319-5.693l-7.734-26.75a8.353 8.353 0 015.689-10.328l137.62-39.844a8.345 8.345 0 0110.32 5.693l7.733 26.75a8.353 8.353 0 01-.71 6.341 8.342 8.342 0 01-4.978 3.987zM128.44 85.242a7.142 7.142 0 00-4.868 8.837l7.734 26.751a7.134 7.134 0 008.83 4.871l137.621-39.844a7.147 7.147 0 004.867-8.837l-7.733-26.751a7.14 7.14 0 00-8.83-4.871L128.44 85.242z" fill="#3F3D56"/><path d="M206.47 80.189l-23.103 6.688a2.403 2.403 0 01-2.978-1.643 2.41 2.41 0 011.642-2.98l23.102-6.69a2.402 2.402 0 012.978 1.644 2.405 2.405 0 01-1.641 2.98zm53.345-1.665L186.466 99.76a2.405 2.405 0 01-2.775-3.474 2.405 2.405 0 011.438-1.15L258.478 73.9a2.402 2.402 0 012.979 1.643 2.41 2.41 0 01-1.642 2.981z" fill="#E6E6E6"/><path d="M205.474 293.335a.902.902 0 01-.642-.054l-11.667-5.625a.895.895 0 01-.459-.515.9.9 0 01.038-.69l5.621-11.675a.899.899 0 011.204-.421.905.905 0 01.421 1.204l-5.229 10.863 10.854 5.232a.904.904 0 01-.141 1.681zm6.631-1.945a.899.899 0 01-.98-.335.903.903 0 01-.018-1.037l6.748-9.989-9.981-6.753a.903.903 0 011.01-1.495l10.728 7.259a.905.905 0 01.381.576.906.906 0 01-.139.677l-7.253 10.736a.895.895 0 01-.496.361z" fill="#6C63FF"/><path d="M341.25 305.493l-137.621 39.844a8.336 8.336 0 01-10.32-5.692l-19.93-68.945a8.354 8.354 0 01.71-6.341 8.343 8.343 0 014.978-3.986l137.621-39.844a8.332 8.332 0 016.336.711 8.345 8.345 0 013.983 4.981l19.931 68.945a8.346 8.346 0 01-5.688 10.327zm-161.849-43.964a7.148 7.148 0 00-4.867 8.837l19.93 68.944a7.145 7.145 0 003.409 4.263 7.133 7.133 0 005.422.608l137.62-39.844a7.148 7.148 0 004.868-8.837l-19.931-68.944a7.134 7.134 0 00-8.83-4.871l-137.621 39.844z" fill="#3F3D56"/><path d="M258.633 263.094l-23.102 6.689a2.4 2.4 0 01-2.549-.808 2.4 2.4 0 01-.228-2.666 2.416 2.416 0 011.441-1.15l23.102-6.688a2.404 2.404 0 012.772 3.473 2.406 2.406 0 01-1.436 1.15zm53.346-1.664l-73.349 21.236a2.407 2.407 0 01-2.982-1.642 2.43 2.43 0 01.205-1.832 2.407 2.407 0 011.44-1.15l73.349-21.236a2.404 2.404 0 012.979 1.643 2.406 2.406 0 01-1.642 2.981zM151.496 161.332l-6.741 1.952a1.732 1.732 0 00-1.182 2.146l.562 1.944a1.731 1.731 0 002.144 1.183l6.741-1.952a1.732 1.732 0 001.182-2.146l-.561-1.944a1.732 1.732 0 00-2.145-1.183z" fill="#E6E6E6"/><path d="M206.38 145.442l-6.741 1.952a1.733 1.733 0 00-1.182 2.146l.562 1.944a1.731 1.731 0 002.144 1.183l6.741-1.952a1.734 1.734 0 001.183-2.146l-.562-1.944a1.732 1.732 0 00-2.145-1.183z" fill="#6C63FF"/><path d="M221.931 140.94l-6.741 1.951a1.733 1.733 0 00-1.182 2.147l.561 1.943a1.731 1.731 0 002.145 1.183l6.741-1.951a1.733 1.733 0 001.182-2.147l-.562-1.943a1.73 1.73 0 00-2.144-1.183zm-30.607 8.385l-31.767 9.197a1.732 1.732 0 00-1.182 2.146l.561 1.944a1.732 1.732 0 002.145 1.183l31.768-9.198a1.732 1.732 0 001.182-2.146l-.562-1.943a1.731 1.731 0 00-2.145-1.183z" fill="#E6E6E6"/><path d="M264.503 128.138l-31.767 9.197a1.734 1.734 0 00-1.183 2.146l.562 1.944a1.732 1.732 0 002.145 1.183l31.768-9.197a1.735 1.735 0 001.182-2.147l-.562-1.943a1.731 1.731 0 00-2.145-1.183z" fill="#F2F2F2"/><path d="M155.133 173.176l-6.741 1.951a1.734 1.734 0 00-1.182 2.147l.562 1.943a1.731 1.731 0 002.145 1.183l6.741-1.951a1.735 1.735 0 001.182-2.147l-.562-1.943a1.731 1.731 0 00-2.145-1.183z" fill="#E6E6E6"/><path d="M210.017 157.286l-6.741 1.951a1.734 1.734 0 00-1.182 2.146l.562 1.944a1.732 1.732 0 002.145 1.183l6.741-1.952a1.733 1.733 0 001.182-2.146l-.562-1.943a1.731 1.731 0 00-2.145-1.183z" fill="#6C63FF"/><path d="M225.568 152.783l-6.741 1.952a1.732 1.732 0 00-1.182 2.146l.562 1.944a1.73 1.73 0 002.144 1.183l6.741-1.952a1.732 1.732 0 001.182-2.146l-.561-1.944a1.732 1.732 0 00-2.145-1.183zm-30.606 8.385l-31.768 9.198a1.732 1.732 0 00-1.182 2.146l.562 1.943a1.732 1.732 0 002.144 1.184l31.768-9.198a1.732 1.732 0 001.182-2.146l-.562-1.944a1.73 1.73 0 00-2.144-1.183z" fill="#E6E6E6"/><path d="M268.142 139.98l-31.768 9.197a1.735 1.735 0 00-1.182 2.147l.562 1.943a1.732 1.732 0 002.145 1.183l31.768-9.197a1.735 1.735 0 001.182-2.147l-.562-1.943a1.731 1.731 0 00-2.145-1.183z" fill="#F2F2F2"/><path d="M187.648 176.659l-6.741 1.951a1.733 1.733 0 00-1.182 2.147l.562 1.943a1.731 1.731 0 002.144 1.183l6.741-1.951a1.734 1.734 0 001.183-2.147l-.562-1.943a1.731 1.731 0 00-2.145-1.183z" fill="#E6E6E6"/><path d="M242.532 160.769l-6.741 1.951a1.733 1.733 0 00-1.182 2.146l.562 1.944a1.732 1.732 0 002.145 1.183l6.741-1.952a1.734 1.734 0 001.182-2.146l-.562-1.943a1.731 1.731 0 00-2.145-1.183z" fill="#6C63FF"/><path d="M258.083 156.266l-6.741 1.952a1.732 1.732 0 00-1.182 2.146l.562 1.944a1.73 1.73 0 002.144 1.183l6.741-1.952a1.732 1.732 0 001.182-2.146l-.562-1.944a1.73 1.73 0 00-2.144-1.183zm-30.606 8.385l-31.768 9.198a1.732 1.732 0 00-1.182 2.146l.561 1.943a1.731 1.731 0 002.145 1.183l31.768-9.197a1.733 1.733 0 001.182-2.146l-.562-1.944a1.731 1.731 0 00-2.144-1.183z" fill="#E6E6E6"/><path d="M300.657 143.463l-31.768 9.197a1.733 1.733 0 00-1.182 2.146l.562 1.944a1.732 1.732 0 002.145 1.183l31.767-9.198a1.733 1.733 0 001.183-2.146l-.562-1.943a1.731 1.731 0 00-2.145-1.183z" fill="#F2F2F2"/><path d="M168.476 220.008l-6.741 1.952a1.734 1.734 0 00-1.182 2.146l.562 1.944a1.732 1.732 0 002.145 1.183l6.741-1.952a1.733 1.733 0 001.182-2.146l-.562-1.944a1.732 1.732 0 00-2.145-1.183z" fill="#6C63FF"/><path d="M184.027 215.506l-6.741 1.952a1.732 1.732 0 00-1.182 2.146l.562 1.943a1.73 1.73 0 002.144 1.183l6.741-1.951a1.732 1.732 0 001.182-2.146l-.562-1.944a1.73 1.73 0 00-2.144-1.183z" fill="#E6E6E6"/><path d="M226.854 203.583l-31.768 9.198a1.732 1.732 0 00-1.182 2.146l.562 1.943a1.73 1.73 0 002.144 1.183l31.768-9.197a1.732 1.732 0 001.182-2.146l-.562-1.944a1.731 1.731 0 00-2.144-1.183z" fill="#F2F2F2"/><path d="M205.084 196.513l-6.741 1.951a1.734 1.734 0 00-1.182 2.147l.562 1.943a1.73 1.73 0 002.144 1.183l6.741-1.951a1.734 1.734 0 001.183-2.147l-.562-1.943a1.731 1.731 0 00-2.145-1.183zm15.553-4.504l-6.741 1.952a1.734 1.734 0 00-1.183 2.146l.562 1.944a1.732 1.732 0 002.145 1.183l6.741-1.952a1.733 1.733 0 001.182-2.146l-.562-1.944a1.731 1.731 0 00-2.144-1.183z" fill="#6C63FF"/><path d="M190.283 201.275l-31.768 9.197a1.732 1.732 0 00-1.182 2.146l.562 1.944a1.73 1.73 0 002.144 1.183l31.768-9.198a1.733 1.733 0 001.182-2.146l-.562-1.943a1.73 1.73 0 00-2.144-1.183z" fill="#E6E6E6"/><path d="M263.463 180.086l-31.768 9.198a1.734 1.734 0 00-1.182 2.146l.562 1.944a1.732 1.732 0 002.145 1.183l31.768-9.198a1.733 1.733 0 001.182-2.146l-.562-1.944a1.732 1.732 0 00-2.145-1.183z" fill="#F2F2F2"/><path d="M190.851 187.737l-6.741 1.952a1.732 1.732 0 00-1.182 2.146l.561 1.944a1.732 1.732 0 002.145 1.183l6.741-1.952a1.732 1.732 0 001.182-2.146l-.562-1.944a1.731 1.731 0 00-2.144-1.183z" fill="#E6E6E6"/><path d="M245.735 171.847l-6.741 1.952a1.732 1.732 0 00-1.182 2.146l.562 1.943a1.73 1.73 0 002.144 1.183l6.741-1.951a1.732 1.732 0 001.182-2.146l-.562-1.944a1.73 1.73 0 00-2.144-1.183z" fill="#6C63FF"/><path d="M261.285 167.345l-6.741 1.951a1.734 1.734 0 00-1.182 2.147l.562 1.943a1.732 1.732 0 002.145 1.183l6.741-1.951a1.734 1.734 0 001.182-2.147l-.562-1.943a1.731 1.731 0 00-2.145-1.183zm-30.352 9.264l-31.768 9.197a1.734 1.734 0 00-1.182 2.146l.562 1.944a1.732 1.732 0 002.145 1.183l31.768-9.198a1.734 1.734 0 001.182-2.146l-.562-1.943a1.731 1.731 0 00-2.145-1.183z" fill="#E6E6E6"/><path d="M304.112 155.422l-31.768 9.197a1.733 1.733 0 00-1.182 2.146l.562 1.944a1.732 1.732 0 002.145 1.183l31.767-9.197a1.734 1.734 0 001.183-2.147l-.562-1.943a1.731 1.731 0 00-2.145-1.183z" fill="#F2F2F2"/><path d="M174.349 197.738a2.707 2.707 0 000-5.415 2.706 2.706 0 00-2.705 2.708 2.706 2.706 0 002.705 2.707zm-3.175-10.981a2.707 2.707 0 002.706-2.708 2.707 2.707 0 00-2.706-2.708 2.707 2.707 0 00-2.705 2.708 2.707 2.707 0 002.705 2.708z" fill="#6C63FF"/><path d="M190.589 28.004l-17.904 5.183a1.502 1.502 0 01-1.856-1.028 1.506 1.506 0 011.021-1.861l17.904-5.184a1.5 1.5 0 011.596.503 1.5 1.5 0 01.142 1.669 1.505 1.505 0 01-.903.718zm8.823-2.917a1.203 1.203 0 100-2.407 1.203 1.203 0 000 2.407z" fill="#fff"/><path d="M256.355 313.15a10.268 10.268 0 01-13.084-8.997 10.283 10.283 0 015.508-9.999 10.26 10.26 0 0111.339 1.266 10.28 10.28 0 01-3.763 17.73z" fill="#E6E6E6"/><path d="M257.112 301.178l-2.919.845-.844-2.921a1.014 1.014 0 00-1.946.563l.844 2.921-2.919.845a1.015 1.015 0 00-.207 1.861c.235.13.512.161.77.087l2.919-.845.845 2.921a.995.995 0 00.484.606 1.017 1.017 0 00.77.086 1.014 1.014 0 00.692-1.255l-.845-2.922 2.919-.845a1.01 1.01 0 00.69-1.255 1.013 1.013 0 00-1.253-.692z" fill="#fff"/><path d="M285.214 304.794a10.26 10.26 0 01-10.875-3.455 10.28 10.28 0 013.298-15.54 10.257 10.257 0 0111.339 1.266 10.28 10.28 0 01-3.762 17.729z" fill="#E6E6E6"/><path d="M285.97 292.823l-2.918.845-1.947.563-2.919.845a1.013 1.013 0 00-.207 1.862c.235.13.512.161.77.086l2.919-.845 1.946-.564 2.919-.845a1.016 1.016 0 00.607-.484 1.01 1.01 0 00-.096-1.123 1.014 1.014 0 00-1.074-.34z" fill="#fff"/><path d="M314.072 296.439a10.26 10.26 0 01-10.875-3.455 10.28 10.28 0 013.298-15.54 10.264 10.264 0 0114.587 6.268c.757 2.618.443 5.43-.871 7.817a10.268 10.268 0 01-6.139 4.91z" fill="#E6E6E6"/><path d="M316.632 284.493l-3.977-3.275a.857.857 0 00-.955-.096.866.866 0 00-.142 1.43l2.572 2.118-2.22.643-1.946.563-2.919.845a1.015 1.015 0 00.563 1.948l2.919-.845 1.946-.564 2.309-.668-1.096 3.321a.86.86 0 00.549 1.089.86.86 0 001.09-.547l1.616-4.895a1.134 1.134 0 00-.309-1.067z" fill="#fff"/></g><defs><clipPath id="clip0_5_135"><path fill="#fff" d="M0 0h372v381H0z"/></clipPath></defs></svg>