<svg width="372" height="381" viewBox="0 0 372 381" fill="none" xmlns="http://www.w3.org/2000/svg">
<g clip-path="url(#clip0_5_135)">
<path d="M66.9355 370.147H72.6346L75.3468 348.148H66.9355V370.147Z" fill="#A0616A"/>
<path d="M65.0755 366.24L74.1805 365.696V369.6L82.837 375.583C83.2645 375.879 83.5866 376.303 83.756 376.795C83.9255 377.286 83.9334 377.819 83.7788 378.316C83.6242 378.812 83.315 379.246 82.8965 379.554C82.4779 379.862 81.9719 380.029 81.4523 380.029H70.6124L68.744 376.167L68.0145 380.029H63.9274L65.0755 366.24Z" fill="#2F2E41"/>
<path d="M112.517 370.147H118.216L120.929 348.148H112.517V370.147Z" fill="#A0616A"/>
<path d="M110.657 366.24L119.762 365.696V369.6L128.419 375.583C128.846 375.879 129.168 376.303 129.338 376.795C129.507 377.286 129.515 377.819 129.361 378.316C129.206 378.812 128.897 379.246 128.478 379.554C128.06 379.862 127.554 380.029 127.034 380.029H116.194L114.326 376.167L113.596 380.029H109.509L110.657 366.24Z" fill="#2F2E41"/>
<path d="M71.4471 235.782L101.748 236.542V203.769L76.8583 203.893L71.4471 235.782Z" fill="#A0616A"/>
<path d="M101.902 212.186L105.952 225.692L114.36 243.407L132.122 345.73L129.407 359.884L103.075 358.776L91.3482 271.045L91.1596 283.157L91.0684 289.019C91.0684 289.019 95.3456 327.148 90.3598 334.547C85.3739 341.947 90.2581 341.077 90.2581 341.077L90.0206 356.341L58.8214 356.562L65.7044 312.616C65.7044 312.616 69.1994 309.855 67.3295 307.079C65.4595 304.303 69.1418 300.903 69.1418 300.903L67.4903 266.595C67.4903 266.595 69.3189 260.669 67.168 259.899C65.017 259.129 66.8856 254.033 66.8856 254.033L66.5659 247.393L73.6435 220.61L101.902 212.186Z" fill="#2F2E41"/>
<path d="M72.5401 203.769L69.4424 194.469L67.2297 191.369L66.3446 182.511C66.3446 158.596 71.675 162.578 71.675 162.578L78.6279 154.167L86.5382 153.92L92.7893 153.724L97.9863 162.36L105.509 165.018L108.456 180.337L103.076 196.683L103.313 195.469C105.845 200.148 105.201 200.851 103.104 204.364L103 205.633C102.753 208.632 104.842 209.149 101.902 209.78C76.6497 215.195 74.2448 226.025 71.2386 221.813C70.5692 220.876 73.4098 209.683 72.4411 209.78C69.7868 210.045 72.5401 203.769 72.5401 203.769Z" fill="#E6E6E6"/>
<path d="M88.0153 150.751C95.2657 150.751 101.143 144.869 101.143 137.613C101.143 130.357 95.2657 124.475 88.0153 124.475C80.7649 124.475 74.8873 130.357 74.8873 137.613C74.8873 144.869 80.7649 150.751 88.0153 150.751Z" fill="#A0616A"/>
<path d="M60.3235 231.349L61.6678 185.067L70.4238 188.901L66.0586 231.18C66.7447 231.745 67.2424 232.506 67.485 233.361C67.7277 234.216 67.7037 235.125 67.4165 235.966C67.1292 236.807 66.5922 237.54 65.8773 238.068C65.1625 238.595 64.3037 238.892 63.4158 238.918C62.528 238.944 61.6533 238.699 60.9087 238.214C60.164 237.729 59.585 237.029 59.2488 236.206C58.9127 235.383 58.8354 234.477 59.0275 233.609C59.2195 232.741 59.6717 231.953 60.3235 231.349V231.349Z" fill="#A0616A"/>
<path d="M71.5183 162.339L70.5001 162.661C67.7793 163.521 65.4032 165.226 63.7165 167.529C62.0299 169.832 61.1206 172.613 61.1206 175.468L59.2053 184.246C61.98 189.01 66.0816 191.37 71.7919 190.817L71.5183 162.339Z" fill="#E6E6E6"/>
<path d="M131.371 178.314C131.372 177.665 131.228 177.025 130.95 176.439C130.671 175.853 130.266 175.337 129.764 174.928C129.261 174.518 128.674 174.226 128.044 174.073C127.415 173.919 126.759 173.908 126.124 174.04C125.49 174.172 124.893 174.444 124.377 174.836C123.86 175.228 123.438 175.73 123.14 176.306C122.842 176.882 122.677 177.517 122.655 178.165C122.633 178.814 122.756 179.458 123.015 180.053L114.429 193.592V185.471L104.744 186.519L106.1 200.991C106.208 202.15 106.684 203.243 107.456 204.113C108.229 204.982 109.259 205.582 110.396 205.824C111.533 206.067 112.718 205.94 113.778 205.462C114.838 204.984 115.718 204.18 116.289 203.167L127.895 182.587C128.877 182.383 129.759 181.847 130.392 181.069C131.025 180.291 131.371 179.318 131.371 178.314V178.314Z" fill="#A0616A"/>
<path d="M103.959 164.515L104.933 164.823C107.536 165.645 109.809 167.277 111.422 169.48C113.036 171.683 113.906 174.344 113.906 177.075L115.738 185.471C113.084 190.029 109.16 192.287 103.697 191.758L103.959 164.515Z" fill="#E6E6E6"/>
<path d="M71.1648 140.548C71.898 137.755 72.1736 134.832 73.2329 132.146C74.2845 129.479 76.066 127.163 78.3731 125.463C80.6802 123.763 83.4193 122.749 86.2763 122.536C89.1332 122.323 91.9922 122.92 94.5253 124.26C97.0584 125.599 99.163 127.626 100.598 130.107C101.855 132.121 102.385 134.505 102.099 136.862C101.681 139.426 99.9843 141.864 100.516 144.407C100.871 146.108 102.155 147.43 103.175 148.837C104.194 150.244 104.999 152.105 104.264 153.68C103.467 155.39 101.251 155.896 99.3716 155.735C97.4923 155.575 95.61 154.967 93.7549 155.308L94.6383 151.843C92.4393 153.962 90.2403 156.08 88.0413 158.198C88.2847 155.993 87.2613 153.878 86.5555 151.776C85.8497 149.673 85.5205 147.14 86.919 145.419C87.7554 144.39 89.0439 143.87 90.1942 143.211C91.3445 142.552 92.4859 141.566 92.6031 140.244C92.7481 138.611 91.2854 137.3 89.8491 136.51C88.4128 135.72 86.7586 135.058 85.9524 133.63C86.531 134.873 87.1097 136.116 87.6884 137.359C85.7641 137.223 83.9097 136.581 82.3123 135.499C80.715 134.416 79.4311 132.931 78.5904 131.194L77.7975 131.713C71.2052 139.112 79.6472 150.197 74.6983 154.076C76.8718 150.198 70.0358 144.848 71.1648 140.548Z" fill="#2F2E41"/>
<path d="M242.783 1.40107L122.339 36.2723C103.606 41.6959 92.8136 61.29 98.233 80.037L177.857 355.475C183.276 374.222 202.856 385.022 221.588 379.599L342.033 344.728C360.766 339.304 371.558 319.71 366.139 300.963L286.515 25.5253C281.095 6.77832 261.516 -4.02247 242.783 1.40107Z" fill="#3F3D56"/>
<path d="M243.702 4.58008L227.952 9.14024L229.526 14.5856C230.238 17.0504 229.943 19.6975 228.706 21.9445C227.468 24.1916 225.389 25.8545 222.926 26.5676L152.556 46.9413C150.093 47.6544 147.448 47.3591 145.202 46.1205C142.957 44.8818 141.295 42.8013 140.583 40.3366L139.009 34.8912L123.258 39.4513C115.11 41.8203 108.234 47.327 104.138 54.7632C100.042 62.1995 99.0609 70.9581 101.41 79.1174L181.033 354.555C183.401 362.709 188.903 369.59 196.334 373.689C203.764 377.789 212.516 378.77 220.669 376.42L341.114 341.549C349.262 339.18 356.138 333.673 360.234 326.237C364.33 318.801 365.311 310.042 362.962 301.883L283.338 26.4451C280.971 18.2911 275.469 11.4098 268.038 7.31069C260.607 3.21162 251.856 2.22961 243.702 4.58008V4.58008Z" fill="white"/>
<path d="M107.688 115.991C107.075 116.168 106.418 116.094 105.859 115.786C105.301 115.478 104.887 114.961 104.709 114.348L103.373 109.724C103.285 109.421 103.258 109.103 103.293 108.789C103.328 108.474 103.424 108.17 103.577 107.894C103.729 107.617 103.935 107.373 104.181 107.175C104.428 106.978 104.711 106.831 105.015 106.743C105.318 106.656 105.636 106.628 105.949 106.663C106.263 106.698 106.567 106.795 106.844 106.948C107.12 107.1 107.364 107.306 107.561 107.553C107.759 107.8 107.905 108.083 107.993 108.387L109.33 113.01C109.506 113.624 109.433 114.282 109.125 114.841C108.817 115.399 108.3 115.813 107.688 115.991V115.991Z" fill="#3F3D56"/>
<path d="M114.542 139.701C113.929 139.878 113.272 139.804 112.713 139.496C112.155 139.188 111.741 138.671 111.563 138.058L107.884 125.33C107.796 125.026 107.769 124.708 107.804 124.394C107.839 124.08 107.936 123.776 108.088 123.499C108.24 123.223 108.446 122.978 108.693 122.781C108.939 122.584 109.222 122.437 109.526 122.349C109.829 122.261 110.147 122.234 110.461 122.269C110.775 122.304 111.079 122.401 111.355 122.553C111.632 122.706 111.876 122.912 112.073 123.158C112.27 123.405 112.417 123.689 112.504 123.992L116.184 136.721C116.36 137.334 116.287 137.992 115.979 138.551C115.671 139.109 115.154 139.523 114.542 139.701V139.701Z" fill="#3F3D56"/>
<path d="M120.052 158.763C119.44 158.939 118.782 158.865 118.224 158.557C117.665 158.249 117.252 157.732 117.074 157.12L113.394 144.391C113.217 143.778 113.29 143.12 113.598 142.561C113.906 142.002 114.423 141.588 115.036 141.41C115.649 141.233 116.307 141.307 116.865 141.615C117.424 141.923 117.837 142.44 118.015 143.054L121.694 155.782C121.871 156.395 121.797 157.053 121.489 157.612C121.181 158.171 120.665 158.585 120.052 158.763V158.763Z" fill="#3F3D56"/>
<path d="M306.482 93.5127C305.869 93.6893 305.211 93.6155 304.653 93.3075C304.094 92.9995 303.681 92.4823 303.503 91.8696L294.525 60.8122C294.348 60.199 294.421 59.5405 294.729 58.9815C295.037 58.4225 295.554 58.0088 296.167 57.8314C296.779 57.654 297.437 57.7274 297.996 58.0356C298.555 58.3437 298.968 58.8613 299.145 59.4745L308.123 90.5319C308.3 91.145 308.226 91.8032 307.918 92.362C307.611 92.9209 307.094 93.3347 306.482 93.5127Z" fill="#3F3D56"/>
<path d="M153.31 110.429C153.097 110.491 152.868 110.471 152.668 110.375L141.002 104.75C140.895 104.699 140.799 104.627 140.72 104.539C140.642 104.45 140.581 104.347 140.542 104.235C140.503 104.123 140.486 104.005 140.493 103.886C140.499 103.768 140.529 103.652 140.581 103.546L146.201 91.8702C146.252 91.7634 146.324 91.6678 146.412 91.5888C146.501 91.5099 146.604 91.4491 146.716 91.41C146.827 91.3709 146.946 91.3541 147.064 91.3608C147.182 91.3675 147.298 91.3974 147.405 91.4488C147.511 91.5003 147.607 91.5722 147.686 91.6606C147.765 91.749 147.825 91.8521 147.865 91.964C147.904 92.0759 147.92 92.1943 147.914 92.3127C147.907 92.431 147.877 92.5469 147.826 92.6537L142.597 103.516L153.451 108.749C153.615 108.828 153.752 108.955 153.843 109.114C153.933 109.273 153.973 109.455 153.958 109.637C153.943 109.819 153.873 109.993 153.757 110.134C153.641 110.275 153.485 110.378 153.31 110.429V110.429Z" fill="#6C63FF"/>
<path d="M159.941 108.484C159.763 108.536 159.573 108.531 159.398 108.471C159.223 108.411 159.07 108.298 158.961 108.148C158.852 107.998 158.792 107.818 158.788 107.633C158.785 107.447 158.839 107.265 158.943 107.112L165.691 97.1233L155.71 90.37C155.612 90.3038 155.527 90.2187 155.462 90.1198C155.396 90.0209 155.351 89.91 155.328 89.7935C155.306 89.677 155.306 89.5572 155.33 89.4409C155.354 89.3246 155.4 89.2141 155.467 89.1158C155.533 89.0175 155.618 88.9333 155.717 88.868C155.816 88.8026 155.927 88.7575 156.044 88.7351C156.16 88.7127 156.28 88.7136 156.396 88.7376C156.512 88.7616 156.622 88.8083 156.72 88.875L167.448 96.1337C167.546 96.2001 167.631 96.2851 167.696 96.384C167.761 96.4829 167.806 96.5937 167.829 96.7101C167.851 96.8265 167.85 96.9461 167.827 97.0622C167.803 97.1783 167.756 97.2886 167.69 97.3868L160.437 108.123C160.319 108.298 160.144 108.426 159.941 108.484Z" fill="#6C63FF"/>
<path d="M278.091 87.0128L140.47 126.857C138.347 127.469 136.069 127.213 134.134 126.146C132.2 125.079 130.767 123.287 130.151 121.164L122.417 94.4131C121.806 92.2887 122.061 90.0084 123.128 88.0723C124.194 86.1362 125.984 84.7025 128.106 84.0857L265.726 44.2415C267.849 43.6295 270.128 43.8852 272.062 44.9524C273.997 46.0196 275.43 47.8113 276.046 49.9342L283.779 76.6855C284.391 78.8098 284.135 81.0902 283.069 83.0263C282.003 84.9624 280.212 86.3961 278.091 87.0128ZM128.44 85.2417C126.625 85.7695 125.093 86.9963 124.18 88.6529C123.268 90.3096 123.049 92.2608 123.572 94.0786L131.306 120.83C131.833 122.646 133.059 124.179 134.714 125.093C136.37 126.006 138.32 126.225 140.136 125.701L277.757 85.8568C279.572 85.329 281.104 84.1022 282.016 82.4456C282.929 80.7889 283.147 78.8377 282.624 77.0199L274.891 50.2687C274.364 48.4521 273.138 46.9191 271.482 46.0059C269.827 45.0927 267.877 44.8739 266.061 45.3975L128.44 85.2417Z" fill="#3F3D56"/>
<path d="M206.47 80.1886L183.367 86.8772C182.755 87.0546 182.097 86.9811 181.538 86.673C180.98 86.3648 180.566 85.8472 180.389 85.2341C180.212 84.6209 180.285 83.9624 180.593 83.4034C180.901 82.8444 181.418 82.4307 182.031 82.2533L205.133 75.5647C205.746 75.3873 206.404 75.4608 206.962 75.7689C207.521 76.0771 207.934 76.5947 208.111 77.2078C208.289 77.821 208.215 78.4795 207.907 79.0385C207.599 79.5976 207.082 80.0112 206.47 80.1886V80.1886Z" fill="#E6E6E6"/>
<path d="M259.815 78.5241L186.466 99.7602C185.853 99.9376 185.195 99.8642 184.636 99.556C184.078 99.2479 183.665 98.7303 183.487 98.1171C183.31 97.5039 183.383 96.8454 183.691 96.2864C183.999 95.7274 184.516 95.3137 185.129 95.1363L258.478 73.9002C259.091 73.7228 259.749 73.7962 260.307 74.1044C260.866 74.4125 261.279 74.9301 261.457 75.5433C261.634 76.1564 261.561 76.815 261.253 77.374C260.945 77.933 260.428 78.3467 259.815 78.5241V78.5241Z" fill="#E6E6E6"/>
<path d="M205.474 293.335C205.26 293.397 205.032 293.377 204.832 293.281L193.165 287.656C193.059 287.605 192.963 287.533 192.884 287.444C192.805 287.356 192.745 287.253 192.706 287.141C192.666 287.029 192.65 286.911 192.656 286.792C192.663 286.674 192.693 286.558 192.744 286.451L198.365 274.776C198.468 274.56 198.654 274.395 198.879 274.316C199.105 274.237 199.353 274.251 199.569 274.355C199.784 274.458 199.949 274.644 200.028 274.87C200.107 275.096 200.093 275.344 199.99 275.559L194.761 286.422L205.615 291.654C205.779 291.734 205.916 291.861 206.006 292.02C206.097 292.179 206.137 292.361 206.122 292.543C206.107 292.725 206.037 292.898 205.921 293.04C205.805 293.181 205.649 293.284 205.474 293.335Z" fill="#6C63FF"/>
<path d="M212.105 291.39C211.927 291.442 211.737 291.437 211.562 291.377C211.387 291.317 211.234 291.205 211.125 291.055C211.016 290.905 210.955 290.725 210.952 290.539C210.949 290.354 211.003 290.172 211.107 290.018L217.855 280.029L207.874 273.276C207.676 273.141 207.54 272.934 207.494 272.699C207.449 272.464 207.499 272.221 207.633 272.023C207.767 271.825 207.974 271.688 208.208 271.643C208.443 271.597 208.686 271.647 208.884 271.781L219.612 279.04C219.81 279.174 219.947 279.381 219.993 279.616C220.038 279.851 219.988 280.094 219.854 280.293L212.601 291.029C212.483 291.204 212.308 291.332 212.105 291.39V291.39Z" fill="#6C63FF"/>
<path d="M341.25 305.493L203.629 345.337C201.506 345.949 199.227 345.694 197.293 344.627C195.358 343.559 193.926 341.768 193.309 339.645L173.379 270.7C172.767 268.576 173.023 266.295 174.089 264.359C175.155 262.423 176.946 260.99 179.067 260.373L316.688 220.529C318.811 219.917 321.089 220.172 323.024 221.24C324.958 222.307 326.391 224.098 327.007 226.221L346.938 295.166C347.549 297.29 347.294 299.571 346.228 301.507C345.161 303.443 343.371 304.876 341.25 305.493V305.493ZM179.401 261.529C177.586 262.057 176.054 263.283 175.142 264.94C174.229 266.597 174.011 268.548 174.534 270.366L194.464 339.31C194.992 341.127 196.218 342.66 197.873 343.573C199.528 344.486 201.478 344.705 203.295 344.181L340.915 304.337C342.731 303.81 344.263 302.583 345.175 300.926C346.088 299.269 346.306 297.318 345.783 295.5L325.852 226.556C325.325 224.739 324.099 223.206 322.444 222.293C320.788 221.38 318.838 221.161 317.022 221.685L179.401 261.529Z" fill="#3F3D56"/>
<path d="M258.633 263.094L235.531 269.783C235.228 269.871 234.91 269.899 234.596 269.864C234.281 269.83 233.977 269.733 233.7 269.581C233.423 269.428 233.179 269.222 232.982 268.975C232.784 268.728 232.637 268.445 232.549 268.141C232.462 267.837 232.434 267.519 232.47 267.204C232.505 266.89 232.602 266.586 232.754 266.309C232.907 266.032 233.113 265.788 233.36 265.59C233.607 265.393 233.891 265.247 234.195 265.159L257.297 258.471C257.909 258.294 258.566 258.368 259.124 258.677C259.682 258.985 260.095 259.502 260.272 260.115C260.449 260.727 260.376 261.385 260.069 261.944C259.761 262.503 259.245 262.916 258.633 263.094Z" fill="#E6E6E6"/>
<path d="M311.979 261.43L238.63 282.666C238.326 282.754 238.008 282.782 237.694 282.747C237.38 282.712 237.076 282.616 236.799 282.463C236.522 282.311 236.278 282.105 236.081 281.858C235.883 281.611 235.736 281.328 235.648 281.024C235.561 280.72 235.534 280.402 235.569 280.087C235.604 279.773 235.7 279.469 235.853 279.192C236.006 278.915 236.212 278.671 236.459 278.474C236.706 278.276 236.989 278.13 237.293 278.042L310.642 256.806C311.255 256.629 311.913 256.702 312.471 257.01C313.03 257.318 313.443 257.836 313.621 258.449C313.798 259.062 313.724 259.721 313.417 260.28C313.109 260.839 312.591 261.253 311.979 261.43V261.43Z" fill="#E6E6E6"/>
<path d="M151.496 161.332L144.755 163.284C143.836 163.55 143.307 164.511 143.573 165.43L144.135 167.374C144.401 168.293 145.361 168.823 146.279 168.557L153.02 166.605C153.939 166.339 154.468 165.378 154.202 164.459L153.641 162.515C153.375 161.596 152.415 161.066 151.496 161.332Z" fill="#E6E6E6"/>
<path d="M206.38 145.442L199.639 147.394C198.721 147.66 198.191 148.621 198.457 149.54L199.019 151.484C199.285 152.403 200.245 152.933 201.163 152.667L207.904 150.715C208.823 150.449 209.352 149.488 209.087 148.569L208.525 146.625C208.259 145.706 207.299 145.176 206.38 145.442Z" fill="#6C63FF"/>
<path d="M221.931 140.94L215.19 142.891C214.271 143.157 213.742 144.118 214.008 145.038L214.569 146.981C214.835 147.901 215.795 148.43 216.714 148.164L223.455 146.213C224.374 145.947 224.903 144.986 224.637 144.066L224.075 142.123C223.81 141.204 222.849 140.674 221.931 140.94Z" fill="#E6E6E6"/>
<path d="M191.324 149.325L159.557 158.522C158.638 158.788 158.109 159.749 158.375 160.668L158.936 162.612C159.202 163.531 160.162 164.061 161.081 163.795L192.849 154.597C193.767 154.332 194.297 153.371 194.031 152.451L193.469 150.508C193.203 149.588 192.243 149.059 191.324 149.325Z" fill="#E6E6E6"/>
<path d="M264.503 128.138L232.736 137.335C231.817 137.601 231.288 138.562 231.553 139.481L232.115 141.425C232.381 142.344 233.341 142.874 234.26 142.608L266.028 133.411C266.946 133.145 267.475 132.184 267.21 131.264L266.648 129.321C266.382 128.401 265.422 127.872 264.503 128.138Z" fill="#F2F2F2"/>
<path d="M155.133 173.176L148.392 175.127C147.474 175.393 146.944 176.354 147.21 177.274L147.772 179.217C148.038 180.137 148.998 180.666 149.917 180.4L156.658 178.449C157.576 178.183 158.105 177.222 157.84 176.302L157.278 174.359C157.012 173.439 156.052 172.91 155.133 173.176Z" fill="#E6E6E6"/>
<path d="M210.017 157.286L203.276 159.237C202.358 159.503 201.829 160.464 202.094 161.383L202.656 163.327C202.922 164.246 203.882 164.776 204.801 164.51L211.542 162.558C212.46 162.292 212.99 161.332 212.724 160.412L212.162 158.469C211.896 157.549 210.936 157.02 210.017 157.286Z" fill="#6C63FF"/>
<path d="M225.568 152.783L218.827 154.735C217.908 155.001 217.379 155.962 217.645 156.881L218.207 158.825C218.472 159.744 219.433 160.274 220.351 160.008L227.092 158.056C228.011 157.79 228.54 156.829 228.274 155.91L227.713 153.966C227.447 153.047 226.487 152.517 225.568 152.783Z" fill="#E6E6E6"/>
<path d="M194.962 161.168L163.194 170.366C162.275 170.632 161.746 171.593 162.012 172.512L162.574 174.455C162.839 175.375 163.8 175.904 164.718 175.639L196.486 166.441C197.405 166.175 197.934 165.214 197.668 164.295L197.106 162.351C196.841 161.432 195.88 160.902 194.962 161.168Z" fill="#E6E6E6"/>
<path d="M268.142 139.98L236.374 149.177C235.456 149.443 234.927 150.404 235.192 151.324L235.754 153.267C236.02 154.186 236.98 154.716 237.899 154.45L269.667 145.253C270.585 144.987 271.114 144.026 270.849 143.106L270.287 141.163C270.021 140.243 269.061 139.714 268.142 139.98Z" fill="#F2F2F2"/>
<path d="M187.648 176.659L180.907 178.61C179.988 178.876 179.459 179.837 179.725 180.757L180.287 182.7C180.553 183.619 181.513 184.149 182.431 183.883L189.172 181.932C190.091 181.666 190.62 180.705 190.355 179.785L189.793 177.842C189.527 176.922 188.567 176.393 187.648 176.659Z" fill="#E6E6E6"/>
<path d="M242.532 160.769L235.791 162.72C234.873 162.986 234.343 163.947 234.609 164.866L235.171 166.81C235.437 167.729 236.397 168.259 237.316 167.993L244.057 166.041C244.975 165.775 245.504 164.815 245.239 163.895L244.677 161.952C244.411 161.032 243.451 160.503 242.532 160.769Z" fill="#6C63FF"/>
<path d="M258.083 156.266L251.342 158.218C250.423 158.484 249.894 159.445 250.16 160.364L250.722 162.308C250.987 163.227 251.947 163.757 252.866 163.491L259.607 161.539C260.526 161.273 261.055 160.312 260.789 159.393L260.227 157.449C259.962 156.53 259.001 156 258.083 156.266Z" fill="#E6E6E6"/>
<path d="M227.477 164.651L195.709 173.849C194.79 174.115 194.261 175.075 194.527 175.995L195.088 177.938C195.354 178.858 196.314 179.387 197.233 179.121L229.001 169.924C229.919 169.658 230.449 168.697 230.183 167.778L229.621 165.834C229.355 164.915 228.395 164.385 227.477 164.651Z" fill="#E6E6E6"/>
<path d="M300.657 143.463L268.889 152.66C267.971 152.926 267.441 153.887 267.707 154.806L268.269 156.75C268.535 157.669 269.495 158.199 270.414 157.933L302.181 148.735C303.1 148.469 303.629 147.509 303.364 146.589L302.802 144.646C302.536 143.726 301.576 143.197 300.657 143.463Z" fill="#F2F2F2"/>
<path d="M168.476 220.008L161.735 221.96C160.817 222.226 160.288 223.187 160.553 224.106L161.115 226.05C161.381 226.969 162.341 227.499 163.26 227.233L170.001 225.281C170.919 225.015 171.449 224.054 171.183 223.135L170.621 221.191C170.355 220.272 169.395 219.742 168.476 220.008Z" fill="#6C63FF"/>
<path d="M184.027 215.506L177.286 217.458C176.367 217.724 175.838 218.684 176.104 219.604L176.666 221.547C176.931 222.467 177.892 222.996 178.81 222.73L185.551 220.779C186.47 220.513 186.999 219.552 186.733 218.633L186.171 216.689C185.906 215.77 184.946 215.24 184.027 215.506Z" fill="#E6E6E6"/>
<path d="M226.854 203.583L195.086 212.781C194.167 213.046 193.638 214.007 193.904 214.927L194.466 216.87C194.731 217.79 195.691 218.319 196.61 218.053L228.378 208.856C229.297 208.59 229.826 207.629 229.56 206.71L228.998 204.766C228.732 203.847 227.772 203.317 226.854 203.583Z" fill="#F2F2F2"/>
<path d="M205.084 196.513L198.343 198.464C197.425 198.73 196.895 199.691 197.161 200.611L197.723 202.554C197.989 203.474 198.949 204.003 199.867 203.737L206.608 201.786C207.527 201.52 208.056 200.559 207.791 199.639L207.229 197.696C206.963 196.776 206.003 196.247 205.084 196.513Z" fill="#6C63FF"/>
<path d="M220.637 192.009L213.896 193.961C212.977 194.227 212.448 195.188 212.713 196.107L213.275 198.051C213.541 198.97 214.501 199.5 215.42 199.234L222.161 197.282C223.079 197.016 223.609 196.055 223.343 195.136L222.781 193.192C222.515 192.273 221.555 191.743 220.637 192.009Z" fill="#6C63FF"/>
<path d="M190.283 201.275L158.515 210.472C157.596 210.738 157.067 211.699 157.333 212.618L157.895 214.562C158.16 215.481 159.12 216.011 160.039 215.745L191.807 206.547C192.725 206.281 193.255 205.321 192.989 204.401L192.427 202.458C192.161 201.538 191.201 201.009 190.283 201.275Z" fill="#E6E6E6"/>
<path d="M263.463 180.086L231.695 189.284C230.777 189.55 230.248 190.511 230.513 191.43L231.075 193.374C231.341 194.293 232.301 194.823 233.22 194.557L264.988 185.359C265.906 185.093 266.436 184.132 266.17 183.213L265.608 181.269C265.342 180.35 264.382 179.82 263.463 180.086Z" fill="#F2F2F2"/>
<path d="M190.851 187.737L184.11 189.689C183.191 189.955 182.662 190.916 182.928 191.835L183.489 193.779C183.755 194.698 184.715 195.228 185.634 194.962L192.375 193.01C193.294 192.744 193.823 191.783 193.557 190.864L192.995 188.92C192.729 188.001 191.769 187.471 190.851 187.737Z" fill="#E6E6E6"/>
<path d="M245.735 171.847L238.994 173.799C238.075 174.065 237.546 175.025 237.812 175.945L238.374 177.888C238.639 178.808 239.599 179.337 240.518 179.071L247.259 177.12C248.178 176.854 248.707 175.893 248.441 174.974L247.879 173.03C247.614 172.111 246.653 171.581 245.735 171.847Z" fill="#6C63FF"/>
<path d="M261.285 167.345L254.544 169.296C253.626 169.562 253.096 170.523 253.362 171.443L253.924 173.386C254.19 174.305 255.15 174.835 256.069 174.569L262.81 172.618C263.728 172.352 264.258 171.391 263.992 170.471L263.43 168.528C263.164 167.608 262.204 167.079 261.285 167.345Z" fill="#E6E6E6"/>
<path d="M230.933 176.609L199.165 185.806C198.247 186.072 197.718 187.033 197.983 187.952L198.545 189.896C198.811 190.815 199.771 191.345 200.69 191.079L232.458 181.881C233.376 181.615 233.905 180.655 233.64 179.735L233.078 177.792C232.812 176.872 231.852 176.343 230.933 176.609Z" fill="#E6E6E6"/>
<path d="M304.112 155.422L272.344 164.619C271.426 164.885 270.896 165.846 271.162 166.765L271.724 168.709C271.99 169.628 272.95 170.158 273.869 169.892L305.636 160.695C306.555 160.429 307.084 159.468 306.819 158.548L306.257 156.605C305.991 155.685 305.031 155.156 304.112 155.422Z" fill="#F2F2F2"/>
<path d="M174.349 197.738C175.843 197.738 177.055 196.526 177.055 195.031C177.055 193.535 175.843 192.323 174.349 192.323C172.855 192.323 171.644 193.535 171.644 195.031C171.644 196.526 172.855 197.738 174.349 197.738Z" fill="#6C63FF"/>
<path d="M171.174 186.757C172.669 186.757 173.88 185.544 173.88 184.049C173.88 182.554 172.669 181.341 171.174 181.341C169.68 181.341 168.469 182.554 168.469 184.049C168.469 185.544 169.68 186.757 171.174 186.757Z" fill="#6C63FF"/>
<path d="M190.589 28.0037L172.685 33.1873C172.303 33.2963 171.893 33.2493 171.545 33.0565C171.197 32.8638 170.94 32.5409 170.829 32.1587C170.719 31.7765 170.764 31.366 170.955 31.0171C171.147 30.6683 171.468 30.4095 171.85 30.2973L189.754 25.1137C189.944 25.0579 190.143 25.0402 190.339 25.0616C190.536 25.0829 190.727 25.143 190.9 25.2382C191.074 25.3335 191.227 25.4621 191.35 25.6167C191.474 25.7712 191.566 25.9487 191.621 26.139C191.676 26.3292 191.693 26.5285 191.671 26.7253C191.649 26.9221 191.588 27.1126 191.492 27.2858C191.396 27.4591 191.267 27.6116 191.112 27.7348C190.957 27.858 190.779 27.9494 190.589 28.0037V28.0037Z" fill="white"/>
<path d="M199.412 25.0866C200.076 25.0866 200.615 24.5479 200.615 23.8833C200.615 23.2186 200.076 22.6799 199.412 22.6799C198.748 22.6799 198.21 23.2186 198.21 23.8833C198.21 24.5479 198.748 25.0866 199.412 25.0866Z" fill="white"/>
<path d="M256.355 313.15C254.404 313.714 252.33 313.688 250.394 313.073C248.459 312.458 246.749 311.282 245.481 309.694C244.213 308.107 243.444 306.178 243.271 304.153C243.098 302.128 243.529 300.098 244.509 298.318C245.489 296.538 246.975 295.089 248.779 294.154C250.582 293.219 252.622 292.84 254.64 293.066C256.658 293.291 258.565 294.11 260.118 295.42C261.671 296.729 262.801 298.47 263.365 300.423C264.122 303.041 263.809 305.852 262.494 308.239C261.179 310.626 258.971 312.392 256.355 313.15V313.15Z" fill="#E6E6E6"/>
<path d="M257.112 301.178L254.193 302.023L253.349 299.102C253.312 298.974 253.25 298.855 253.167 298.751C253.084 298.647 252.981 298.56 252.865 298.496C252.629 298.366 252.352 298.335 252.094 298.41C251.836 298.484 251.618 298.659 251.489 298.894C251.359 299.13 251.328 299.407 251.403 299.665L252.247 302.586L249.328 303.431C249.07 303.507 248.853 303.681 248.724 303.916C248.594 304.151 248.564 304.428 248.638 304.686C248.713 304.944 248.887 305.162 249.121 305.292C249.356 305.422 249.633 305.453 249.891 305.379L252.81 304.534L253.655 307.455C253.691 307.583 253.753 307.702 253.836 307.806C253.919 307.91 254.022 307.997 254.139 308.061C254.255 308.125 254.383 308.166 254.515 308.181C254.647 308.195 254.781 308.184 254.909 308.147C255.037 308.11 255.156 308.048 255.26 307.965C255.364 307.882 255.45 307.779 255.515 307.663C255.579 307.546 255.619 307.418 255.634 307.286C255.649 307.153 255.638 307.019 255.601 306.892L254.756 303.97L257.675 303.125C257.933 303.05 258.15 302.876 258.279 302.641C258.409 302.405 258.44 302.128 258.365 301.87C258.29 301.612 258.117 301.395 257.882 301.265C257.647 301.135 257.37 301.104 257.112 301.178V301.178Z" fill="white"/>
<path d="M285.214 304.794C283.263 305.359 281.188 305.332 279.253 304.717C277.317 304.102 275.607 302.927 274.339 301.339C273.071 299.752 272.302 297.823 272.129 295.798C271.956 293.773 272.387 291.742 273.367 289.963C274.348 288.183 275.834 286.734 277.637 285.799C279.44 284.864 281.48 284.485 283.498 284.711C285.517 284.936 287.423 285.755 288.976 287.065C290.529 288.374 291.659 290.115 292.224 292.067C292.98 294.685 292.667 297.497 291.352 299.884C290.038 302.271 287.83 304.037 285.214 304.794Z" fill="#E6E6E6"/>
<path d="M285.97 292.823L283.052 293.668L281.105 294.231L278.186 295.076C277.928 295.151 277.711 295.325 277.581 295.561C277.451 295.796 277.42 296.074 277.495 296.332C277.57 296.59 277.744 296.808 277.979 296.938C278.214 297.068 278.491 297.099 278.749 297.024L281.668 296.179L283.614 295.615L286.533 294.77C286.661 294.733 286.781 294.672 286.885 294.589C286.989 294.506 287.076 294.403 287.14 294.286C287.205 294.169 287.245 294.041 287.26 293.909C287.275 293.776 287.264 293.642 287.227 293.514C287.19 293.386 287.128 293.267 287.044 293.163C286.961 293.059 286.858 292.972 286.742 292.908C286.625 292.844 286.497 292.803 286.365 292.788C286.232 292.774 286.098 292.785 285.97 292.823Z" fill="white"/>
<path d="M314.072 296.439C312.121 297.004 310.047 296.977 308.111 296.362C306.175 295.747 304.465 294.572 303.197 292.984C301.929 291.397 301.16 289.468 300.987 287.443C300.814 285.418 301.245 283.387 302.226 281.607C303.206 279.828 304.692 278.379 306.495 277.444C308.298 276.509 310.338 276.13 312.357 276.355C314.375 276.581 316.281 277.4 317.834 278.71C319.387 280.019 320.518 281.76 321.082 283.712C321.839 286.33 321.525 289.142 320.211 291.529C318.896 293.916 316.688 295.682 314.072 296.439Z" fill="#E6E6E6"/>
<path d="M316.632 284.493L312.655 281.218C312.567 281.145 312.466 281.091 312.358 281.058C312.249 281.025 312.136 281.014 312.023 281.025C311.91 281.036 311.8 281.069 311.7 281.122C311.6 281.176 311.512 281.248 311.44 281.336C311.368 281.423 311.313 281.524 311.28 281.633C311.247 281.741 311.236 281.855 311.247 281.968C311.258 282.081 311.291 282.191 311.344 282.291C311.398 282.391 311.47 282.48 311.558 282.552L314.13 284.67L311.91 285.313L309.964 285.876L307.045 286.721C306.787 286.796 306.569 286.97 306.439 287.206C306.31 287.441 306.279 287.718 306.353 287.977C306.428 288.235 306.602 288.453 306.837 288.583C307.073 288.712 307.35 288.743 307.608 288.669L310.527 287.824L312.473 287.26L314.782 286.592L313.686 289.913C313.614 290.13 313.632 290.367 313.735 290.571C313.838 290.776 314.018 290.931 314.235 291.002C314.452 291.074 314.689 291.057 314.893 290.954C315.098 290.851 315.253 290.672 315.325 290.455L316.941 285.56C316.984 285.371 316.979 285.173 316.925 284.986C316.871 284.799 316.77 284.629 316.632 284.493V284.493Z" fill="white"/>
</g>
<defs>
<clipPath id="clip0_5_135">
<rect width="372" height="381" fill="white"/>
</clipPath>
</defs>
</svg>
