<?xml version="1.0" standalone="no"?><svg xmlns="http://www.w3.org/2000/svg" viewBox="0 0 1440 320"><path fill="#0099ff" fill-opacity="1" d="M0,288L40,282.7C80,277,160,267,240,229.3C320,192,400,128,480,138.7C560,149,640,235,720,240C800,245,880,171,960,165.3C1040,160,1120,224,1200,261.3C1280,299,1360,309,1400,314.7L1440,320L1440,0L1400,0C1360,0,1280,0,1200,0C1120,0,1040,0,960,0C880,0,800,0,720,0C640,0,560,0,480,0C400,0,320,0,240,0C160,0,80,0,40,0L0,0Z" data-darkreader-inline-fill="" style="--darkreader-inline-fill:#007acc;"></path></svg>